# xmcd
#
# Track frame offsets:
#	150
#	18067
#	36307
#	53012
#	77170
#	93470
#	110030
#	127160
#	146347
#	162800
#	182682
#	213615
#	239082
#	259140
#	280550
#	304702
#
# Disc length: 4306 seconds
#
# Revision: 1
# Processed by: cddbd v1.4PL0 Copyright (c) Steve Scherf et al.
# Submitted via: EasyCDDAExtractor 5.0.6
#
DISCID=e010d010
DTITLE=Kenny Loggins - Yesterday, Today, Tomorrow(B.A.)
DYEAR=1997
DGENRE=Country
TTITLE0=This is it
TTITLE1=Whenever I call you "Friend"
TTITLE2=Footloose
TTITLE3=Heart to Heart
TTITLE4=Danger Zone
TTITLE5=Meet Me Half Way
TTITLE6=I'm Alright
TTITLE7=Return to Pooh Corner
TTITLE8=Don't Fight it
TTITLE9=Forever
TTITLE10=Conviction of the Heart
TTITLE11=The Real Thing
TTITLE12=For the First Time
TTITLE13=Celebrate Me Home
TTITLE14=The Rest of Your Life
TTITLE15=The More We Try
EXTD=
EXTT0=
EXTT1=
EXTT2=
EXTT3=
EXTT4=
EXTT5=
EXTT6=
EXTT7=
EXTT8=
EXTT9=
EXTT10=
EXTT11=
EXTT12=
EXTT13=
EXTT14=
EXTT15=
PLAYORDER=
